<svg width="388" height="388" viewBox="0 0 388 388" fill="none" xmlns="http://www.w3.org/2000/svg">
<path d="M227.174 29.6335C224.691 27.6041 221.83 26.0874 218.757 25.1712C215.683 24.2549 212.459 23.9573 209.27 24.2956C206.081 24.6339 202.991 25.6014 200.178 27.142C197.366 28.6826 194.887 30.7658 192.885 33.271L122.657 121.25H153.696L211.824 48.403L230.496 63.6563L183.694 121.25H214.928L249.29 78.958L290.952 112.981L283.725 121.25H291C298.232 121.242 305.424 122.313 312.34 124.427C314.982 119.471 315.822 113.752 314.716 108.245C313.61 102.739 310.628 97.7874 306.277 94.2355L227.174 29.6335ZM72.75 133.375C72.75 130.159 74.0275 127.075 76.3013 124.801C78.5752 122.527 81.6592 121.25 84.875 121.25H98.4065L117.685 97H84.875C75.2278 97 65.9756 100.832 59.154 107.654C52.3324 114.476 48.5 123.728 48.5 133.375V278.875C48.5 294.954 54.8873 310.374 66.2567 321.743C77.626 333.113 93.0462 339.5 109.125 339.5H291C303.863 339.5 316.199 334.39 325.295 325.295C334.39 316.199 339.5 303.863 339.5 291V194C339.5 181.137 334.39 168.801 325.295 159.705C316.199 150.61 303.863 145.5 291 145.5H84.875C81.6592 145.5 78.5752 144.223 76.3013 141.949C74.0275 139.675 72.75 136.591 72.75 133.375ZM254.625 242.5H278.875C282.091 242.5 285.175 243.777 287.449 246.051C289.723 248.325 291 251.409 291 254.625C291 257.841 289.723 260.925 287.449 263.199C285.175 265.473 282.091 266.75 278.875 266.75H254.625C251.409 266.75 248.325 265.473 246.051 263.199C243.777 260.925 242.5 257.841 242.5 254.625C242.5 251.409 243.777 248.325 246.051 246.051C248.325 243.777 251.409 242.5 254.625 242.5Z" fill="#2884FF"/>
</svg>
